# xmcd
#
# Track frame offsets:
#	150
#	12231
#	29174
#	46198
#	59917
#	74940
#	94547
#	108140
#	122996
#	142687
#	160866
#	176523
#	194283
#	207358
#	222950
#
# Disc length: 3139 seconds
#
# Revision: 1
# Processed by: cddbd v1.5.2PL0 Copyright (c) Steve Scherf et al.
# Submitted via: audiograbber 1.83.01
#
DISCID=df0c410f
DTITLE=TIME LINE 1993 VOL 2 - CB80155 VOL 2
DYEAR=1993
DGENRE=KARAOKE
TTITLE0=ALAN JACKSON - CHATTAHOOCHEE
TTITLE1=TOBY KEITH - I SHOULD'VE BEEN A COWBOY
TTITLE2=PATTY LOVELESS - BLAME IT ON YOUR HEART
TTITLE3=MARK CHESNUTT - IT SURE IS MONDAY
TTITLE4=DOUG STONE - WHY DIDN'T I THINK OF THAT
TTITLE5=LORRIE MORGAN - I GUESS YOU HAD TO BE THERE
TTITLE6=SAWYER BROWN - THANK GOD FOR YOU
TTITLE7=VINCE GILL - ONE MORE LAST CHANCE
TTITLE8=REBA and LINDA DAVIS - DOES HE LOVE YOU
TTITLE9=BROOKS and DUNN - SHE USED TO BE MINE
TTITLE10=REBA - TAKE IT BACK
TTITLE11=JOE DIFFIE - PROP ME UP AGAINST THE JUKEBOX(IF I DIE)
TTITLE12=FAITH HILL - WILD ONE
TTITLE13=CONFEDERATE RAILROAD - TRASHY WOMEN
TTITLE14=TANYA TUCKER - IT'S A LITTLE TOO LATE
EXTD=
EXTT0=
EXTT1=
EXTT2=
EXTT3=
EXTT4=
EXTT5=
EXTT6=
EXTT7=
EXTT8=
EXTT9=
EXTT10=
EXTT11=
EXTT12=
EXTT13=
EXTT14=
PLAYORDER=
